<?xml version="1.0" encoding="UTF-8"?>
<svg xmlns="http://www.w3.org/2000/svg" viewBox="0 0 640 512">
    <path fill="#4a90e2" d="M320 32c-8.1 0-16.1 1.4-23.7 4.1L15.8 137.4C6.3 140.9 0 149.9 0 160s6.3 19.1 15.8 22.6l57.9 20.9C57.3 229.3 48 259.8 48 291.5v28.5c0 28.4-10.8 57.7-22.3 80.8 6.7 9.6 15.6 17.4 25.9 22.4l-1.6 1.6c-12.5 12.5-12.5 32.8 0 45.3s32.8 12.5 45.3 0l1.6-1.6c22.8 10.3 47.4 17 73.1 17c25.7 0 50.3-6.7 73.1-17l1.6 1.6c12.5 12.5 32.8 12.5 45.3 0s12.5-32.8 0-45.3l-1.6-1.6c10.3-5 19.2-12.8 25.9-22.4c-11.5-23.1-22.3-52.4-22.3-80.8v-28.5c0-31.7-9.3-62.2-15.8-91.1l57.9-20.9c9.5-3.4 15.8-12.5 15.8-22.6s-6.3-19.1-15.8-22.6L343.7 36.1C336.1 33.4 328.1 32 320 32zM208 320c-8.8 0-16-7.2-16-16v-16c0-8.8 7.2-16 16-16h32c8.8 0 16 7.2 16 16v16c0 8.8-7.2 16-16 16H208zm128 0c-8.8 0-16-7.2-16-16v-16c0-8.8 7.2-16 16-16h32c8.8 0 16 7.2 16 16v16c0 8.8-7.2 16-16 16H336z"/>
</svg> 